<svg width="104" height="106" viewBox="0 0 104 106" fill="none" xmlns="http://www.w3.org/2000/svg">
<g clip-path="url(#clip0_218_893)">
<path d="M69.3014 49.0193C68.4842 48.7363 67.6256 48.7801 66.777 48.8638C66.1909 48.9215 65.6072 49.0024 65.0241 49.084C64.8447 49.1091 64.7527 49.1586 64.6889 49.343C64.6196 49.5435 64.6554 49.8282 64.7128 50.0236C64.7891 50.2837 64.9023 50.5516 65.0829 50.7569C65.1887 50.8773 65.3867 51.1075 65.5666 51.0824C66.6633 50.9289 67.8061 50.7214 68.9174 50.8164C69.1086 50.8328 69.2993 50.8609 69.4854 50.9088C69.4884 50.9096 69.4914 50.9105 69.4944 50.9114C69.49 50.9092 69.4861 50.9072 69.4812 50.9046C69.488 50.9082 69.4954 50.9111 69.5027 50.914C69.5097 50.9164 69.5165 50.9189 69.523 50.9215C69.5413 50.9277 69.5598 50.9332 69.5779 50.9391C69.5102 51.0504 69.4374 51.1578 69.3563 51.2605C69.1389 51.5356 68.8809 51.7727 68.6086 51.9921C67.8802 52.5486 67.0667 52.9825 66.2532 53.3997C65.3464 53.8648 64.4339 54.3193 63.5186 54.7674C61.6697 55.6728 59.8055 56.5468 57.9274 57.3898C54.1533 59.0838 50.3229 60.6524 46.4451 62.093C45.3715 62.4919 44.2948 62.8833 43.2131 63.2597C42.1973 63.6132 41.1664 63.9461 40.1004 64.1084C39.6035 64.1726 39.0999 64.1952 38.6016 64.1315C38.4873 64.1168 38.3735 64.0978 38.261 64.0727C38.209 64.0612 38.1578 64.0468 38.1062 64.0338C38.0847 64.0263 38.0632 64.0192 38.0419 64.0112C38.0417 64.0112 38.0415 64.0111 38.0413 64.011C38.0423 64.0089 38.0431 64.0067 38.044 64.0046C38.0498 63.9914 38.0742 63.9426 38.0838 63.9223C38.1027 63.8891 38.1269 63.8465 38.1329 63.8364C38.2428 63.6521 38.3702 63.4785 38.5066 63.313C38.8605 62.8839 39.2749 62.5076 39.7095 62.1619C40.3696 61.6553 41.0838 61.2171 41.7908 60.7802C42.514 60.3334 43.247 59.9025 43.9878 59.4856C45.5209 58.623 47.0874 57.8201 48.677 57.0668C51.7636 55.6041 54.9382 54.3205 58.1748 53.2292C59.7799 52.6881 61.4018 52.1952 63.042 51.7718C63.2027 51.7303 63.2565 51.4631 63.2662 51.3379C63.2849 51.096 63.2136 50.8026 63.1152 50.5849C62.9676 50.2583 62.649 49.7007 62.2095 49.8142C60.1049 50.3574 58.0297 51.0136 55.9826 51.7432C53.6861 52.5617 51.4231 53.4755 49.202 54.4806C46.9316 55.5079 44.7027 56.6311 42.5438 57.8764C41.5052 58.4755 40.4773 59.0989 39.4821 59.7681C38.5565 60.3905 37.559 61.1618 37.0128 62.159C36.74 62.6571 36.5947 63.1772 36.6691 63.75C36.7738 64.5556 37.2208 65.3019 37.9085 65.7356C38.3572 66.0186 38.9283 66.1266 39.4509 66.1585C40.1032 66.1982 40.7604 66.112 41.3993 65.9853C42.7204 65.7232 43.9916 65.2417 45.256 64.7884C46.5957 64.3082 47.9299 63.8126 49.2583 63.302C51.8914 62.2898 54.5018 61.2184 57.0867 60.0885C59.6709 58.9589 62.2296 57.771 64.7594 56.5245C65.9842 55.921 67.2309 55.3352 68.4069 54.6396C69.4033 54.0503 70.5952 53.2613 70.9365 52.0816C71.2966 50.8367 70.5095 49.4376 69.3014 49.0193ZM37.9319 64.3736C37.932 64.3725 37.932 64.3713 37.9321 64.3701C37.9367 64.3958 37.9351 64.3909 37.9319 64.3736ZM37.9433 64.3068C37.9384 64.4112 37.9354 64.3652 37.9433 64.3068V64.3068Z" fill="white"/>
<path d="M69.5015 50.9148C69.4987 50.9138 69.496 50.913 69.4932 50.9122C69.6064 50.9705 69.575 50.9439 69.5218 50.9223C69.5149 50.9199 69.5082 50.9174 69.5015 50.9148Z" fill="white"/>
<path d="M67.1562 23.7891C65.2374 27.8854 62.8597 32.3223 58.5992 34.371C57.5761 34.863 56.4639 35.2084 55.3293 35.3003C54.2916 35.3843 53.2478 35.2754 52.2404 35.0188C50.2109 34.5021 48.3566 33.3794 46.773 32.1115C46.2376 31.6828 45.7214 31.2306 45.2206 30.7623C44.98 30.5373 44.743 30.3085 44.509 30.0766C44.3861 29.9548 44.264 29.8322 44.1427 29.7087C44.1065 29.6719 44.0704 29.635 44.0343 29.598C44.019 29.5819 43.9206 29.4798 43.9083 29.4669C42.9439 28.4601 42.0248 27.4113 41.11 26.3596C40.9705 26.1992 40.7248 25.951 40.4813 26.0545C40.2378 26.1581 40.2461 26.5072 40.2649 26.719C40.4826 29.1804 40.6773 31.4289 40.5465 33.8574C40.4298 36.0237 40.0577 38.1024 39.1124 40.1061C38.2023 42.0353 36.673 43.6109 34.7243 44.5283C32.6275 45.5153 30.2919 45.7534 28.0039 45.5474C25.3761 45.3108 22.8313 44.5432 20.3447 43.6956C19.9595 43.5642 19.8086 43.8583 19.8206 44.2161C19.8349 44.6443 20.043 45.2251 20.4054 45.4851C22.7541 47.1703 24.9763 49.0291 27.035 51.059C27.2763 51.2969 27.5152 51.5372 27.7521 51.7796C27.8789 51.9093 27.811 51.8402 27.7833 51.8115C27.8469 51.8774 27.9104 51.9434 27.9737 52.0095C28.0997 52.1412 28.2251 52.2736 28.3498 52.4066C28.8116 52.8989 29.264 53.4 29.7071 53.9092C30.5586 54.8881 31.3751 55.8974 32.1557 56.9336C32.3615 57.2068 32.5647 57.4818 32.7655 57.7586C32.8735 57.9075 32.9808 58.0569 33.0873 58.2068C33.1282 58.2642 33.1689 58.3217 33.2096 58.3794C33.2331 58.4127 33.2565 58.446 33.2799 58.4794C33.2864 58.4886 33.2939 58.4994 33.3027 58.5121C33.6977 59.0841 34.0851 59.6611 34.4618 60.2455C34.6136 60.4809 35.0538 61.0322 35.3546 60.6731C35.6369 60.336 35.3821 59.6304 35.1844 59.3237C32.2155 54.719 28.6441 50.5229 24.4935 46.9402C24.4164 46.8737 24.3386 46.8081 24.2612 46.742C27.7441 47.6736 31.392 48.1068 34.8186 46.7994C36.9679 45.9793 38.7589 44.4587 39.8826 42.4501C41.0088 40.437 41.5504 38.1615 41.76 35.8778C41.9753 33.53 41.8485 31.1663 41.6565 28.8177C43.0305 30.3749 44.447 31.9011 46.0233 33.254C47.7412 34.7283 49.6897 36.0284 51.8529 36.7425C52.8908 37.0851 53.9628 37.3139 55.059 37.3268C56.2378 37.3407 57.4257 37.1225 58.5298 36.7126C60.8057 35.8676 62.7329 34.2427 64.2396 32.3674C65.1529 31.2306 65.933 29.999 66.6375 28.7232C66.394 32.7998 66.5943 36.9005 67.2457 40.9356C67.4339 42.1015 67.6576 43.2622 67.9122 44.4157C67.5167 44.4504 67.1219 44.4991 66.7291 44.5495C65.1444 44.7523 63.571 45.0371 62.0119 45.3849C59.6921 45.9025 57.4033 46.5582 55.1557 47.3308C52.2536 48.3284 49.4195 49.5238 46.6761 50.8987C43.4173 52.5319 40.2868 54.4197 37.3187 56.5355C36.9207 56.8191 36.5259 57.1071 36.1337 57.3986C35.776 57.6644 35.9005 58.2314 36.0605 58.5855C36.1656 58.8179 36.2989 59.0518 36.4982 59.2167C36.6013 59.3019 36.8305 59.457 36.9662 59.3562C39.9481 57.1404 43.0983 55.1538 46.3895 53.4298C49.1544 51.9816 52.0161 50.7173 54.9509 49.6546C57.2763 48.8126 59.6482 48.0958 62.0547 47.5244C62.9732 47.3064 63.8968 47.1096 64.825 46.9373C65.2132 46.8653 65.6022 46.7975 65.992 46.7346C66.1627 46.707 66.3336 46.6803 66.5045 46.6547C66.582 46.643 66.6595 46.6316 66.7371 46.6204C66.7746 46.6149 66.8121 46.6097 66.8496 46.6042C66.8506 46.6041 66.851 46.604 66.8519 46.6039C66.855 46.6034 66.8575 46.6031 66.8611 46.6026C67.5545 46.5079 68.2478 46.4399 68.9445 46.3791C68.9535 46.3783 68.9627 46.3781 68.9717 46.3776C69.4341 46.3544 69.3555 45.7454 69.283 45.4379C69.1364 44.8159 68.9988 44.1919 68.8719 43.5655C68.8607 43.5106 68.8498 43.4556 68.8387 43.4006C68.8353 43.3839 68.8325 43.3702 68.8302 43.3587C68.8283 43.3487 68.8262 43.3377 68.8237 43.3244C68.7972 43.1859 68.7706 43.0475 68.7448 42.9088C68.6825 42.5739 68.6231 42.2384 68.5668 41.9025C68.3557 40.6428 68.187 39.3759 68.0631 38.1046C67.9994 37.4511 67.9475 36.7964 67.9075 36.141C67.8872 35.8084 67.87 35.4756 67.8558 35.1427C67.8519 35.0513 67.8486 34.9599 67.8449 34.8685C67.8446 34.8601 67.8429 34.8145 67.842 34.7905C67.8358 34.6022 67.831 34.4139 67.8271 34.2255C67.7974 32.8239 67.8224 31.4212 67.9013 30.0216C67.9946 28.3658 68.1647 26.7153 68.4031 25.0743C68.4674 24.6314 68.1923 24.0791 67.8948 23.7728C67.6497 23.5203 67.3326 23.4127 67.1562 23.7891Z" fill="white"/>
<path d="M37.0702 24.1914C37.747 24.5194 38.5155 24.5504 39.2315 24.3363C40.0028 24.1057 40.7181 23.5546 41.1317 22.8632C41.628 22.0335 41.7692 21.0442 41.499 20.1129C41.4929 20.0895 41.4864 20.0674 41.4796 20.0474C41.4448 19.9357 41.4038 19.8244 41.3552 19.7167C41.0169 18.8977 40.493 18.2066 39.7404 17.7037C39.2863 17.4002 38.7284 17.1798 38.1747 17.2006C37.2326 17.2358 36.298 17.6596 35.6572 18.3525C34.6837 19.4053 34.6939 21.0471 35.2931 22.283C35.6777 23.0761 36.2629 23.8001 37.0702 24.1914ZM36.5868 22.1456C36.5876 22.1445 36.6034 22.1556 36.6209 22.1682C36.5995 22.1557 36.5858 22.147 36.5868 22.1456ZM40.3397 20.0011C40.34 20.0028 40.3402 20.0045 40.3404 20.0061C40.3395 20.0033 40.3386 20.0005 40.3377 19.9976C40.3382 19.9982 40.3386 19.9988 40.3391 19.9994C40.3393 19.9999 40.3395 20.0005 40.3397 20.0011ZM36.368 20.603C36.3679 20.6045 36.3675 20.6063 36.3669 20.6084C36.3674 20.6064 36.3679 20.6045 36.368 20.603ZM36.3458 20.6486C36.3506 20.6403 36.3558 20.6324 36.3607 20.6242C36.3445 20.659 36.3099 20.7104 36.3458 20.6486ZM36.1599 21.4713C36.16 21.4537 36.1598 21.4361 36.1604 21.4186C36.1629 21.3268 36.1731 21.2366 36.1822 21.1455C36.1912 21.1063 36.1998 21.0672 36.2101 21.0283C36.2324 20.9448 36.2591 20.8624 36.2903 20.7818C36.3044 20.7453 36.3195 20.7091 36.3353 20.6734C36.3406 20.6615 36.3535 20.6403 36.3614 20.623C36.5375 20.3261 36.7542 20.0701 37.0196 19.8506C37.4626 19.5249 37.9831 19.3034 38.5257 19.2137C38.6695 19.1978 38.8145 19.1917 38.9589 19.2032C39.0496 19.2105 39.1387 19.2259 39.2272 19.247C39.2281 19.2472 39.2638 19.2569 39.2911 19.2642C39.3187 19.2737 39.3611 19.2877 39.3621 19.2881C39.4352 19.3155 39.507 19.3463 39.5774 19.38C39.6486 19.414 39.7183 19.4509 39.7864 19.4907C39.8133 19.5064 39.8397 19.523 39.8662 19.5393C39.9282 19.5894 39.9931 19.6352 40.0537 19.6872C40.0806 19.7102 40.1071 19.7337 40.1332 19.7577C40.1416 19.7654 40.16 19.7835 40.1767 19.8C40.2058 19.8327 40.2343 19.8661 40.2618 19.9002C40.2734 19.9146 40.2845 19.9293 40.2958 19.9439C40.2997 19.9502 40.3033 19.9566 40.3073 19.9628C40.3174 19.9925 40.3305 20.0271 40.3422 20.0556C40.3484 20.0898 40.3509 20.1055 40.346 20.0648C40.3473 20.0679 40.3486 20.0709 40.3498 20.0738C40.3503 20.0778 40.3511 20.0817 40.3515 20.0857C40.3528 20.098 40.3533 20.1105 40.3544 20.1228C40.351 20.1736 40.3507 20.2244 40.3462 20.2752C40.3431 20.3103 40.3393 20.3453 40.3346 20.3803C40.3222 20.463 40.3249 20.4502 40.3425 20.3419C40.3526 20.3791 40.3157 20.4628 40.3066 20.4975C40.2748 20.6181 40.2344 20.7366 40.1866 20.8518C40.171 20.8896 40.1541 20.9267 40.137 20.9637C40.1636 20.9042 40.0817 21.0646 40.0687 21.0862C40.0041 21.1941 39.9329 21.298 39.8552 21.3969C39.7148 21.5757 39.5549 21.736 39.3805 21.8808C38.9818 22.1747 38.5286 22.3762 38.0403 22.461C37.8299 22.4834 37.6184 22.4848 37.408 22.4575C37.3023 22.4439 37.2006 22.4198 37.0973 22.3953C37.0739 22.3868 37.0502 22.379 37.0271 22.37C36.9732 22.3492 36.9201 22.3263 36.8679 22.3017C36.8478 22.2922 36.7054 22.2168 36.6314 22.1743C36.6172 22.1639 36.6028 22.1538 36.5888 22.1431C36.5428 22.1082 36.4981 22.0715 36.4545 22.0336C36.4225 22.0057 36.3927 21.9742 36.3614 21.9452C36.3586 21.9421 36.3557 21.939 36.353 21.9359C36.3222 21.9002 36.2934 21.8631 36.2637 21.8265C36.2468 21.7995 36.2308 21.7721 36.2149 21.7446C36.2095 21.7321 36.2044 21.7196 36.1993 21.7071C36.1946 21.6947 36.19 21.6825 36.1871 21.672C36.185 21.6646 36.1822 21.6532 36.1791 21.64C36.1746 21.6115 36.169 21.5761 36.1672 21.56C36.1639 21.5304 36.162 21.5008 36.1599 21.4713Z" fill="white"/>
<path d="M16.4386 39.2476C15.9845 38.9441 15.4267 38.7238 14.8729 38.7445C13.9309 38.7798 12.9962 39.2035 12.3555 39.8964C11.382 40.9492 11.3921 42.5911 11.9914 43.8269C12.376 44.6201 12.9611 45.3441 13.7685 45.7354C14.4453 46.0634 15.2138 46.0944 15.9298 45.8803C16.7011 45.6497 17.4164 45.0986 17.83 44.4072C18.3263 43.5775 18.4675 42.5882 18.1973 41.6569C18.1912 41.6335 18.1847 41.6114 18.1779 41.5914C18.1431 41.4797 18.1022 41.3684 18.0534 41.2607C17.7151 40.4416 17.1912 39.7506 16.4386 39.2476ZM17.0387 41.5501C17.0378 41.5473 17.0369 41.5445 17.0359 41.5415C17.0364 41.5422 17.0369 41.5427 17.0374 41.5433C17.0376 41.5439 17.0378 41.5445 17.038 41.5451C17.0383 41.5468 17.0385 41.5485 17.0387 41.5501ZM13.0662 42.147C13.0662 42.1484 13.0658 42.1503 13.0652 42.1523C13.0657 42.1504 13.0662 42.1485 13.0662 42.147ZM13.044 42.1926C13.0488 42.1843 13.054 42.1764 13.0589 42.1682C13.0428 42.203 13.0082 42.2544 13.044 42.1926ZM13.2851 43.6897C13.2858 43.6886 13.3017 43.6996 13.3191 43.7122C13.2978 43.6997 13.2841 43.691 13.2851 43.6897ZM17.0408 41.8859C17.0509 41.923 17.0139 42.0068 17.0048 42.0414C16.9731 42.162 16.9327 42.2805 16.8849 42.3957C16.8692 42.4335 16.8524 42.4708 16.8352 42.5078C16.862 42.4478 16.78 42.6085 16.767 42.6302C16.7023 42.738 16.6311 42.8419 16.5534 42.9408C16.413 43.1196 16.2532 43.2799 16.0787 43.4248C15.6801 43.7186 15.2268 43.9201 14.7386 44.0049C14.5282 44.0273 14.3167 44.0287 14.1062 44.0015C14.0005 43.9878 13.8988 43.9637 13.7955 43.9393C13.7721 43.9308 13.7484 43.9229 13.7253 43.9139C13.6714 43.8931 13.6183 43.8702 13.5661 43.8456C13.546 43.8361 13.4036 43.7607 13.3297 43.7182C13.3155 43.7079 13.3011 43.6977 13.2871 43.687C13.241 43.6521 13.1963 43.6154 13.1527 43.5775C13.1208 43.5496 13.0909 43.5182 13.0596 43.4891C13.0568 43.486 13.0539 43.4829 13.0512 43.4798C13.0204 43.4441 12.9916 43.407 12.962 43.3704C12.9451 43.3434 12.929 43.316 12.9131 43.2885C12.9078 43.276 12.9026 43.2635 12.8975 43.251C12.8929 43.2386 12.8882 43.2265 12.8853 43.2159C12.8833 43.2085 12.8805 43.1971 12.8773 43.1839C12.8729 43.1554 12.8672 43.12 12.8655 43.1039C12.8622 43.0744 12.8603 43.0449 12.8583 43.0153C12.8583 42.9977 12.8581 42.9801 12.8587 42.9626C12.8612 42.8708 12.8714 42.7806 12.8805 42.6895C12.8895 42.6504 12.8981 42.6112 12.9084 42.5723C12.9307 42.4888 12.9574 42.4064 12.9886 42.3258C13.0028 42.2893 13.0178 42.2531 13.0337 42.2174C13.0389 42.2055 13.0518 42.1843 13.0597 42.167C13.2358 41.8701 13.4525 41.6141 13.7179 41.3946C14.1609 41.0688 14.6814 40.8474 15.2241 40.7577C15.3679 40.7418 15.5129 40.7356 15.6573 40.7472C15.7479 40.7545 15.8371 40.7699 15.9255 40.791C15.9265 40.7912 15.9621 40.8009 15.9895 40.8082C16.017 40.8176 16.0594 40.8317 16.0604 40.8321C16.1335 40.8595 16.2054 40.8903 16.2758 40.9239C16.3469 40.9579 16.4167 40.9949 16.4848 41.0347C16.5117 41.0504 16.538 41.067 16.5645 41.0833C16.6265 41.1333 16.6915 41.1792 16.7521 41.2311C16.7789 41.2542 16.8055 41.2777 16.8315 41.3017C16.8399 41.3094 16.8583 41.3275 16.875 41.344C16.9041 41.3767 16.9326 41.41 16.9601 41.4441C16.9718 41.4585 16.9829 41.4733 16.9941 41.4879C16.998 41.4942 17.0017 41.5006 17.0056 41.5068C17.0157 41.5365 17.0288 41.5711 17.0405 41.5996C17.0467 41.6338 17.0492 41.6494 17.0444 41.6088C17.0457 41.6119 17.0469 41.6149 17.0482 41.6178C17.0486 41.6218 17.0494 41.6257 17.0498 41.6296C17.0511 41.642 17.0517 41.6544 17.0527 41.6668C17.0494 41.7176 17.049 41.7685 17.0445 41.8192C17.0414 41.8543 17.0376 41.8893 17.0329 41.9243C17.0204 42.0068 17.0231 41.9941 17.0408 41.8859Z" fill="white"/>
<path d="M73.0417 17.8774C72.7034 17.0583 72.1795 16.3673 71.4269 15.8643C70.9728 15.5608 70.415 15.3405 69.8612 15.3612C68.9192 15.3965 67.9845 15.8202 67.3438 16.5131C66.3703 17.5659 66.3804 19.2078 66.9796 20.4436C67.3643 21.2368 67.9494 21.9608 68.7568 22.3521C69.4335 22.6801 70.2021 22.7111 70.9181 22.497C71.6894 22.2664 72.4046 21.7153 72.8182 21.0239C73.3146 20.1942 73.4558 19.2049 73.1856 18.2735C73.1795 18.2501 73.173 18.2281 73.1662 18.208C73.1313 18.0964 73.0904 17.9851 73.0417 17.8774ZM72.027 18.1669C72.0261 18.164 72.0252 18.1612 72.0242 18.1583C72.0247 18.1589 72.0251 18.1594 72.0256 18.16C72.0258 18.1606 72.026 18.1612 72.0263 18.1618C72.0265 18.1635 72.0268 18.1652 72.027 18.1669ZM68.0545 18.7637C68.0544 18.7651 68.054 18.767 68.0535 18.769C68.054 18.7671 68.0544 18.7652 68.0545 18.7637ZM68.0323 18.8093C68.0371 18.801 68.0423 18.7931 68.0472 18.7849C68.0311 18.8197 67.9965 18.8711 68.0323 18.8093ZM68.2733 20.3064C68.2741 20.3053 68.29 20.3163 68.3074 20.3289C68.2861 20.3164 68.2724 20.3077 68.2733 20.3064ZM72.029 18.5026C72.0391 18.5397 72.0022 18.6235 71.9931 18.6581C71.9613 18.7787 71.9209 18.8972 71.8731 19.0125C71.8575 19.0502 71.8406 19.0873 71.8235 19.1244C71.8501 19.0648 71.7682 19.2252 71.7553 19.2469C71.6906 19.3547 71.6194 19.4586 71.5417 19.5575C71.4013 19.7363 71.2414 19.8966 71.067 20.0415C70.6683 20.3353 70.215 20.5368 69.7268 20.6216C69.5164 20.644 69.3049 20.6454 69.0945 20.6182C68.9888 20.6045 68.8871 20.5804 68.7838 20.556C68.7604 20.5475 68.7367 20.5396 68.7136 20.5306C68.6597 20.5098 68.6066 20.4869 68.5544 20.4623C68.5343 20.4528 68.3919 20.3774 68.3179 20.3349C68.3037 20.3246 68.2893 20.3143 68.2753 20.3037C68.2293 20.2688 68.1846 20.2321 68.141 20.1942C68.109 20.1663 68.0792 20.1349 68.0479 20.1058C68.0451 20.1027 68.0423 20.0996 68.0395 20.0965C68.0087 20.0608 67.9799 20.0237 67.9503 19.9871C67.9334 19.9601 67.9173 19.9327 67.9014 19.9052C67.8961 19.8927 67.8909 19.8802 67.8858 19.8677C67.8812 19.8553 67.8765 19.8431 67.8736 19.8326C67.8716 19.8252 67.8688 19.8138 67.8656 19.8006C67.8612 19.7721 67.8556 19.7367 67.8538 19.7206C67.8506 19.6911 67.8486 19.6615 67.8466 19.632C67.8466 19.6144 67.8465 19.5968 67.847 19.5793C67.8495 19.4875 67.8597 19.3973 67.8688 19.3062C67.8778 19.267 67.8863 19.2279 67.8967 19.189C67.9189 19.1055 67.9457 19.0231 67.9769 18.9425C67.991 18.906 68.0061 18.8698 68.0219 18.8341C68.0272 18.8222 68.0401 18.801 68.048 18.7837C68.2241 18.4868 68.4408 18.2308 68.7062 18.0113C69.1492 17.6855 69.6697 17.4641 70.2124 17.3744C70.3562 17.3585 70.5011 17.3523 70.6455 17.3639C70.7361 17.3712 70.8253 17.3866 70.9137 17.4077C70.9147 17.4079 70.9503 17.4176 70.9777 17.4249C71.0053 17.4344 71.0477 17.4484 71.0487 17.4488C71.1218 17.4762 71.1936 17.507 71.264 17.5406C71.3352 17.5746 71.4049 17.6116 71.473 17.6514C71.4999 17.6671 71.5263 17.6837 71.5528 17.7C71.6148 17.75 71.6797 17.7959 71.7404 17.8478C71.7672 17.8709 71.7938 17.8944 71.8198 17.9184C71.8282 17.9261 71.8466 17.9442 71.8633 17.9607C71.8924 17.9934 71.9209 18.0267 71.9484 18.0608C71.96 18.0752 71.9712 18.09 71.9824 18.1047C71.9863 18.1109 71.99 18.1173 71.9939 18.1235C72.004 18.1532 72.0171 18.1878 72.0288 18.2163C72.035 18.2505 72.0375 18.2662 72.0326 18.2255C72.034 18.2286 72.0352 18.2316 72.0364 18.2345C72.0369 18.2384 72.0377 18.2423 72.0381 18.2463C72.0394 18.2587 72.0399 18.2711 72.041 18.2835C72.0376 18.3343 72.0372 18.3851 72.0328 18.4359C72.0297 18.471 72.0258 18.506 72.0212 18.5409C72.0087 18.6236 72.0114 18.6108 72.029 18.5026Z" fill="white"/>
</g>
<defs>
<clipPath id="clip0_218_893">
<rect width="78" height="81" fill="white" transform="translate(0 30.524) rotate(-23.0375)"/>
</clipPath>
</defs>
</svg>
