<svg width="80" height="80" viewBox="0 0 80 80" fill="none" xmlns="http://www.w3.org/2000/svg">
<path d="M19 28.3333V23.6667C19 22.429 19.4917 21.242 20.3668 20.3668C21.242 19.4917 22.429 19 23.6667 19H28.3333" stroke="#0197FF" stroke-width="3" stroke-linecap="round" stroke-linejoin="round"/>
<path d="M51.6719 19H56.3385C57.5762 19 58.7632 19.4917 59.6384 20.3668C60.5135 21.242 61.0052 22.429 61.0052 23.6667V28.3333" stroke="#0197FF" stroke-width="3" stroke-linecap="round" stroke-linejoin="round"/>
<path d="M61.0052 51.666V56.3327C61.0052 57.5704 60.5135 58.7573 59.6384 59.6325C58.7632 60.5077 57.5762 60.9993 56.3385 60.9993H51.6719" stroke="#0197FF" stroke-width="3" stroke-linecap="round" stroke-linejoin="round"/>
<path d="M28.3333 60.9993H23.6667C22.429 60.9993 21.242 60.5077 20.3668 59.6325C19.4917 58.7573 19 57.5704 19 56.3327V51.666" stroke="#0197FF" stroke-width="3" stroke-linecap="round" stroke-linejoin="round"/>
<path d="M30.6719 44.666C30.6719 44.666 34.1719 49.3327 40.0052 49.3327C45.8385 49.3327 49.3385 44.666 49.3385 44.666" stroke="#0197FF" stroke-width="3" stroke-linecap="round" stroke-linejoin="round"/>
<path d="M33 33H33.0233" stroke="#0197FF" stroke-width="3" stroke-linecap="round" stroke-linejoin="round"/>
<path d="M47 33H47.0233" stroke="#0197FF" stroke-width="3" stroke-linecap="round" stroke-linejoin="round"/>
</svg>
