<svg width="80" height="80" viewBox="0 0 80 80" fill="none" xmlns="http://www.w3.org/2000/svg">
<path d="M43.502 27.1667L36.1567 19.8214C35.6294 19.2942 34.9143 18.998 34.1687 18.998C33.4231 18.998 32.708 19.2942 32.1807 19.8214L26.8234 25.1787C26.2962 25.706 26 26.4211 26 27.1667C26 27.9124 26.2962 28.6275 26.8234 29.1547L34.1687 36.5001" stroke="#0197FF" stroke-width="3" stroke-linecap="round" stroke-linejoin="round"/>
<path d="M50.5 29.4993L56.3333 23.666" stroke="#0197FF" stroke-width="3" stroke-linecap="round" stroke-linejoin="round"/>
<path d="M52.8333 36.5L60.1787 43.8453C60.7059 44.3726 61.002 45.0877 61.002 45.8333C61.002 46.579 60.7059 47.2941 60.1787 47.8213L54.8213 53.1787C54.2941 53.7059 53.579 54.002 52.8333 54.002C52.0877 54.002 51.3726 53.7059 50.8453 53.1787L43.5 45.8333" stroke="#0197FF" stroke-width="3" stroke-linecap="round" stroke-linejoin="round"/>
<path d="M33 61C33 57.287 31.525 53.726 28.8995 51.1005C26.274 48.475 22.713 47 19 47" stroke="#0197FF" stroke-width="3" stroke-linecap="round" stroke-linejoin="round"/>
<path d="M33.8234 36.8454C33.2962 37.3727 33 38.0878 33 38.8334C33 39.579 33.2962 40.2941 33.8234 40.8214L39.1807 46.1787C39.708 46.7059 40.4231 47.0021 41.1687 47.0021C41.9143 47.0021 42.6294 46.7059 43.1567 46.1787L53.1807 36.1547C53.7079 35.6275 54.0041 34.9124 54.0041 34.1667C54.0041 33.4211 53.7079 32.706 53.1807 32.1787L47.8234 26.8214C47.2961 26.2942 46.581 25.998 45.8354 25.998C45.0897 25.998 44.3746 26.2942 43.8474 26.8214L33.8234 36.8454Z" stroke="#0197FF" stroke-width="3" stroke-linecap="round" stroke-linejoin="round"/>
</svg>
