<svg width="80" height="80" viewBox="0 0 80 80" fill="none" xmlns="http://www.w3.org/2000/svg">
<path d="M45.7895 57.2053L43.5239 59.3963C43.0891 59.8956 42.553 60.2967 41.9513 60.573C41.3496 60.8492 40.696 60.9943 40.0339 60.9985C39.3718 61.0026 38.7164 60.8659 38.1112 60.5973C37.506 60.3287 36.9649 59.9344 36.5239 59.4406L23.6719 46.9993C20.1719 43.4993 16.6719 39.5326 16.6719 34.1659C16.6719 31.5694 17.4596 29.034 18.9309 26.8945C20.4021 24.755 22.4877 23.1121 24.9123 22.1829C27.3368 21.2536 29.9862 21.0816 32.5106 21.6897C35.0349 22.2978 37.3154 23.6573 39.0509 25.5886C39.1731 25.7193 39.3209 25.8235 39.4851 25.8947C39.6492 25.966 39.8263 26.0027 40.0052 26.0027C40.1842 26.0027 40.3612 25.966 40.5254 25.8947C40.6895 25.8235 40.8373 25.7193 40.9595 25.5886C42.6896 23.6447 44.9706 22.2738 47.499 21.6584C50.0274 21.0429 52.6834 21.2121 55.1132 22.1434C57.5431 23.0747 59.6318 24.724 61.1011 26.8717C62.5705 29.0194 63.3509 31.5637 63.3385 34.1659C63.3378 35.3435 63.1657 36.5147 62.8275 37.6426" stroke="#0197FF" stroke-width="3" stroke-linecap="round" stroke-linejoin="round"/>
<path d="M47 47H61" stroke="#0197FF" stroke-width="3" stroke-linecap="round" stroke-linejoin="round"/>
<path d="M54 40V54" stroke="#0197FF" stroke-width="3" stroke-linecap="round" stroke-linejoin="round"/>
</svg>
