<svg width="235" height="166" viewBox="0 0 235 166" fill="none" xmlns="http://www.w3.org/2000/svg">
<path d="M283.458 133.808C283.243 134.608 283.718 135.431 284.519 135.645C285.319 135.859 286.141 135.385 286.356 134.584L284.907 134.196L283.458 133.808ZM86.8968 2.18837L86.5086 3.63726L86.8968 2.18837ZM1.11581 34.7356C0.315006 34.9478 -0.162171 35.7689 0.050028 36.5697L3.50768 49.6194C3.71985 50.4202 4.54102 50.8974 5.34182 50.6852C6.14262 50.473 6.61976 49.6519 6.4076 48.8511L3.33412 37.2513L14.9339 34.1779C15.7347 33.9657 16.2118 33.1445 15.9997 32.3437C15.7875 31.5429 14.9663 31.0658 14.1655 31.2779L1.11581 34.7356ZM284.907 134.196L286.356 134.584C291.84 114.116 293.736 94.6944 292.323 79.8145C291.617 72.3805 290.078 65.997 287.685 61.1677C285.294 56.3412 281.958 52.902 277.604 51.7353L277.216 53.1842L276.827 54.6331C280.047 55.4958 282.823 58.1125 284.997 62.4997C287.17 66.8839 288.65 72.8717 289.336 80.098C290.707 94.5385 288.874 113.593 283.458 133.808L284.907 134.196ZM277.216 53.1842L277.604 51.7353C273.25 50.5685 268.641 51.8793 264.157 54.8633C259.67 57.8491 255.145 62.6079 250.817 68.693C242.154 80.8731 234.085 98.6406 228.6 119.109L230.049 119.497L231.498 119.885C236.914 99.6706 244.854 82.2522 253.262 70.4318C257.469 64.5167 261.745 60.0716 265.819 57.3609C269.895 54.6485 273.608 53.7703 276.827 54.6331L277.216 53.1842ZM230.049 119.497L228.6 119.109C225.52 130.602 224.027 141.412 224.128 149.618C224.179 153.71 224.627 157.244 225.527 159.915C226.405 162.521 227.861 164.71 230.21 165.34L230.598 163.891L230.987 162.442C230.129 162.212 229.15 161.273 228.37 158.957C227.611 156.705 227.177 153.522 227.128 149.581C227.031 141.72 228.468 131.191 231.498 119.885L230.049 119.497ZM230.598 163.891L230.21 165.34C232.559 165.969 234.915 164.801 236.979 162.983C239.094 161.12 241.248 158.284 243.338 154.765C247.529 147.709 251.64 137.601 254.72 126.108L253.271 125.719L251.822 125.331C248.793 136.637 244.774 146.474 240.759 153.233C238.746 156.622 236.779 159.162 234.996 160.732C233.161 162.348 231.844 162.672 230.987 162.442L230.598 163.891ZM253.271 125.719L254.72 126.108C260.204 105.639 262.1 86.2177 260.687 71.3377C259.982 63.9037 258.443 57.5202 256.049 52.6909C253.658 47.8645 250.323 44.4253 245.968 43.2585L245.58 44.7074L245.192 46.1563C248.412 47.0191 251.187 49.6357 253.361 54.0229C255.534 58.4072 257.015 64.3949 257.701 71.6212C259.072 86.0618 257.239 105.116 251.822 125.331L253.271 125.719ZM245.58 44.7074L245.968 43.2585C241.614 42.0918 237.006 43.4025 232.521 46.3865C228.034 49.3723 223.509 54.1311 219.181 60.2162C210.518 72.3962 202.448 90.1638 196.964 110.632L198.413 111.02L199.862 111.408C205.278 91.1938 213.218 73.7754 221.626 61.955C225.833 56.0399 230.11 51.5948 234.183 48.8841C238.26 46.1717 241.972 45.2935 245.192 46.1563L245.58 44.7074ZM198.413 111.02L196.964 110.632C193.884 122.126 192.391 132.935 192.492 141.141C192.543 145.234 192.991 148.767 193.891 151.438C194.769 154.044 196.225 156.234 198.574 156.863L198.963 155.414L199.351 153.965C198.494 153.736 197.514 152.797 196.734 150.48C195.975 148.228 195.541 145.046 195.492 141.104C195.395 133.243 196.832 122.715 199.862 111.408L198.413 111.02ZM198.963 155.414L198.574 156.863C200.924 157.493 203.28 156.324 205.343 154.507C207.458 152.643 209.612 149.807 211.702 146.289C215.893 139.233 220.004 129.124 223.084 117.631L221.635 117.243L220.186 116.854C217.157 128.161 213.138 137.997 209.123 144.757C207.11 148.146 205.143 150.685 203.36 152.255C201.526 153.871 200.208 154.195 199.351 153.965L198.963 155.414ZM221.635 117.243L223.084 117.631C228.569 97.1618 230.446 77.7339 229.002 62.8447C228.281 55.406 226.723 49.0173 224.309 44.1825C221.896 39.35 218.538 35.9087 214.164 34.7367L213.776 36.1855L213.388 37.6344C216.634 38.5044 219.432 41.1308 221.625 45.5227C223.817 49.9123 225.315 55.9045 226.016 63.1342C227.417 77.5819 225.603 96.6406 220.186 116.854L221.635 117.243ZM213.776 36.1855L214.164 34.7367C209.79 33.5646 205.162 34.866 200.656 37.8446C196.148 40.8246 191.604 45.5785 187.26 51.66C178.565 63.8326 170.477 81.596 164.992 102.065L166.441 102.453L167.89 102.842C173.306 82.6277 181.264 65.2153 189.701 53.4038C193.923 47.4932 198.217 43.0529 202.31 40.3473C206.405 37.6403 210.141 36.7645 213.388 37.6344L213.776 36.1855ZM166.441 102.453L164.992 102.065C161.912 113.559 160.418 124.368 160.52 132.574C160.571 136.667 161.019 140.2 161.919 142.871C162.797 145.477 164.253 147.667 166.602 148.296L166.99 146.847L167.379 145.398C166.522 145.169 165.542 144.23 164.762 141.913C164.003 139.661 163.569 136.479 163.52 132.537C163.422 124.676 164.86 114.148 167.89 102.842L166.441 102.453ZM166.99 146.847L166.602 148.296C168.952 148.926 171.307 147.757 173.371 145.94C175.486 144.077 177.64 141.24 179.73 137.722C183.921 130.666 188.032 120.557 191.111 109.064L189.663 108.676L188.214 108.287C185.184 119.593 181.165 129.43 177.151 136.19C175.138 139.579 173.171 142.118 171.388 143.689C169.553 145.304 168.236 145.628 167.379 145.398L166.99 146.847ZM189.663 108.676L191.111 109.064C196.596 88.5956 198.492 69.1739 197.079 54.2939C196.373 46.86 194.834 40.4765 192.441 35.6472C190.05 30.8208 186.715 27.3815 182.36 26.2148L181.972 27.6637L181.584 29.1126C184.804 29.9753 187.579 32.592 189.753 36.9792C191.926 41.3634 193.407 47.3512 194.093 54.5774C195.463 69.018 193.63 88.0727 188.214 108.287L189.663 108.676ZM181.972 27.6637L182.36 26.2148C178.006 25.048 173.398 26.3588 168.913 29.3429C164.426 32.3287 159.902 37.0874 155.574 43.1726C146.91 55.3527 138.841 73.1203 133.357 93.5885L134.806 93.9767L136.255 94.3649C141.671 74.1503 149.611 56.7318 158.018 44.9114C162.226 38.9962 166.502 34.5511 170.575 31.8404C174.652 29.128 178.364 28.2498 181.584 29.1126L181.972 27.6637ZM134.806 93.9767L133.357 93.5885C130.277 105.082 128.783 115.892 128.884 124.098C128.935 128.19 129.383 131.723 130.283 134.394C131.161 137 132.617 139.19 134.966 139.819L135.354 138.37L135.743 136.922C134.886 136.692 133.906 135.753 133.126 133.436C132.367 131.185 131.933 128.002 131.884 124.061C131.787 116.199 133.225 105.671 136.255 94.3649L134.806 93.9767ZM135.354 138.37L134.966 139.819C137.315 140.449 139.672 139.28 141.735 137.463C143.85 135.6 146.004 132.764 148.095 129.245C152.286 122.189 156.397 112.081 159.476 100.587L158.028 100.199L156.579 99.8108C153.549 111.117 149.53 120.954 145.515 127.713C143.502 131.102 141.535 133.641 139.752 135.212C137.918 136.828 136.6 137.151 135.743 136.922L135.354 138.37ZM158.028 100.199L159.476 100.587C164.961 80.119 166.856 60.6972 165.444 45.8172C164.738 38.3832 163.199 31.9997 160.806 27.1704C158.414 22.3439 155.079 18.9047 150.724 17.7379L150.336 19.1868L149.948 20.6357C153.168 21.4985 155.944 24.1152 158.117 28.5024C160.29 32.8867 161.771 38.8744 162.457 46.1008C163.828 60.5413 161.995 79.5961 156.579 99.8108L158.028 100.199ZM150.336 19.1868L150.724 17.7379C146.37 16.5712 141.762 17.882 137.277 20.866C132.79 23.8518 128.266 28.6106 123.938 34.6957C115.274 46.8759 107.205 64.6435 101.721 85.1116L103.17 85.4999L104.619 85.8881C110.035 65.6734 117.975 48.255 126.382 36.4345C130.59 30.5194 134.866 26.0742 138.939 23.3636C143.016 20.6511 146.728 19.7729 149.948 20.6357L150.336 19.1868ZM103.17 85.4999L101.721 85.1116C98.6411 96.6052 97.1474 107.415 97.2489 115.621C97.2995 119.713 97.7473 123.247 98.6472 125.917C99.5252 128.523 100.981 130.713 103.33 131.342L103.718 129.894L104.107 128.445C103.25 128.215 102.271 127.276 101.49 124.96C100.731 122.708 100.297 119.525 100.249 115.584C100.151 107.723 101.589 97.1942 104.619 85.8881L103.17 85.4999ZM103.718 129.894L103.33 131.342C105.679 131.972 108.036 130.804 110.099 128.986C112.214 127.123 114.368 124.287 116.459 120.768C120.65 113.712 124.761 103.604 127.84 92.1104L126.392 91.7221L124.943 91.3339C121.913 102.64 117.894 112.477 113.879 119.236C111.866 122.625 109.899 125.164 108.116 126.735C106.282 128.351 104.964 128.674 104.107 128.445L103.718 129.894ZM126.392 91.7221L127.84 92.1104C133.325 71.6422 135.22 52.2204 133.808 37.3404C133.102 29.9064 131.563 23.5229 129.17 18.6937C126.778 13.8673 123.443 10.4281 119.089 9.26136L118.701 10.7102L118.313 12.1591C121.532 13.0218 124.308 15.6385 126.482 20.0256C128.654 24.4099 130.135 30.3976 130.821 37.6239C132.192 52.0645 130.359 71.1192 124.943 91.3339L126.392 91.7221ZM118.701 10.7102L119.089 9.26136C114.735 8.0946 110.127 9.40539 105.642 12.3894C101.155 15.3752 96.6304 20.1339 92.3021 26.219C83.6386 38.3991 75.5693 56.1666 70.0848 76.6348L71.5337 77.023L72.9826 77.4113C78.3991 57.1966 86.3391 39.7782 94.7468 27.9578C98.9541 22.0427 103.23 17.5976 107.304 14.887C111.38 12.1746 115.093 11.2964 118.313 12.1591L118.701 10.7102ZM71.5337 77.023L70.0848 76.6348C67.0051 88.1284 65.5114 98.9379 65.613 107.144C65.6636 111.236 66.1115 114.77 67.0116 117.441C67.8898 120.047 69.346 122.236 71.6952 122.866L72.0835 121.417L72.4717 119.968C71.6145 119.738 70.6352 118.799 69.8545 116.483C69.0958 114.231 68.6615 111.048 68.6127 107.107C68.5154 99.2457 69.9531 88.7174 72.9826 77.4113L71.5337 77.023ZM72.0835 121.417L71.6952 122.866C74.0443 123.495 76.4002 122.327 78.4634 120.509C80.5782 118.646 82.7327 115.81 84.8227 112.291C89.0136 105.235 93.1247 95.1271 96.2044 83.6335L94.7556 83.2453L93.3067 82.8571C90.2772 94.1632 86.2582 104 82.2433 110.759C80.2304 114.148 78.2631 116.688 76.4803 118.258C74.646 119.874 73.3285 120.198 72.4717 119.968L72.0835 121.417ZM94.7556 83.2453L96.2044 83.6335C101.689 63.1645 103.566 43.7367 102.123 28.8475C101.401 21.4088 99.8436 15.0201 97.4297 10.1853C95.0168 5.35279 91.6591 1.91151 87.2851 0.739484L86.8968 2.18837L86.5086 3.63726C89.7552 4.50719 92.5528 7.13365 94.7456 11.5254C96.9373 15.9151 98.4356 21.9073 99.1366 29.137C100.537 43.5846 98.7229 62.6432 93.3067 82.8571L94.7556 83.2453ZM86.8968 2.18837L87.2851 0.739484C82.8882 -0.438664 79.1093 -0.162514 75.7843 1.23745C72.4925 2.6235 69.7733 5.05738 67.3753 7.97784C64.9803 10.8947 62.8374 14.3833 60.7374 17.9655C58.6182 21.5804 56.5467 25.2828 54.2354 28.7828C49.6128 35.7828 44.2567 41.6079 36.4213 43.6253C28.5832 45.6433 17.8517 43.9523 2.25361 34.8886L1.49999 36.1855L0.746361 37.4825C16.6483 46.7227 28.2293 48.8323 37.1693 46.5305C46.1118 44.2281 51.9993 37.6131 56.7388 30.436C59.1085 26.8475 61.2477 23.027 63.3255 19.4827C65.4224 15.9058 67.4628 12.5988 69.6939 9.88161C71.922 7.16804 74.2718 5.1294 76.9485 4.00236C79.5922 2.88925 82.6813 2.61174 86.5086 3.63726L86.8968 2.18837Z" fill="white"/>
</svg>
