<svg width="80" height="80" viewBox="0 0 80 80" fill="none" xmlns="http://www.w3.org/2000/svg">
<path d="M49.3281 44.666V49.7994L53.0615 52.1327" stroke="#0197FF" stroke-width="3" stroke-linecap="round" stroke-linejoin="round"/>
<path d="M49.3281 21.334H53.9948C55.2325 21.334 56.4195 21.8256 57.2946 22.7008C58.1698 23.576 58.6615 24.763 58.6615 26.0007V27.942" stroke="#0197FF" stroke-width="3" stroke-linecap="round" stroke-linejoin="round"/>
<path d="M30.6615 21.334H25.9948C24.7571 21.334 23.5701 21.8256 22.695 22.7008C21.8198 23.576 21.3281 24.763 21.3281 26.0007V58.6673C21.3281 59.905 21.8198 61.092 22.695 61.9671C23.5701 62.8423 24.7571 63.334 25.9948 63.334H30.6615" stroke="#0197FF" stroke-width="3" stroke-linecap="round" stroke-linejoin="round"/>
<path d="M49.3281 63.334C57.0601 63.334 63.3281 57.066 63.3281 49.334C63.3281 41.602 57.0601 35.334 49.3281 35.334C41.5961 35.334 35.3281 41.602 35.3281 49.334C35.3281 57.066 41.5961 63.334 49.3281 63.334Z" stroke="#0197FF" stroke-width="3" stroke-linecap="round" stroke-linejoin="round"/>
<path d="M47.0052 16.666H33.0052C31.7165 16.666 30.6719 17.7107 30.6719 18.9993V23.666C30.6719 24.9547 31.7165 25.9993 33.0052 25.9993H47.0052C48.2939 25.9993 49.3385 24.9547 49.3385 23.666V18.9993C49.3385 17.7107 48.2939 16.666 47.0052 16.666Z" stroke="#0197FF" stroke-width="3" stroke-linecap="round" stroke-linejoin="round"/>
</svg>
