<svg width="80" height="80" viewBox="0 0 80 80" fill="none" xmlns="http://www.w3.org/2000/svg">
<path d="M58.6719 26C59.9096 26 61.0965 26.4917 61.9717 27.3668C62.8469 28.242 63.3385 29.429 63.3385 30.6667V49.3333C63.3385 50.571 62.8469 51.758 61.9717 52.6332C61.0965 53.5083 59.9096 54 58.6719 54H49.3385C48.6141 54 47.8995 53.8313 47.2515 53.5073C46.6036 53.1833 46.0399 52.7129 45.6052 52.1333L41.8719 47.1633C41.6545 46.8735 41.3727 46.6383 41.0487 46.4763C40.7247 46.3143 40.3674 46.23 40.0052 46.23C39.643 46.23 39.2857 46.3143 38.9617 46.4763C38.6377 46.6383 38.3559 46.8735 38.1385 47.1633L34.4052 52.1333C33.9705 52.7129 33.4069 53.1833 32.7589 53.5073C32.1109 53.8313 31.3964 54 30.6719 54H21.3385C20.1009 54 18.9139 53.5083 18.0387 52.6332C17.1635 51.758 16.6719 50.571 16.6719 49.3333V30.6667C16.6719 29.429 17.1635 28.242 18.0387 27.3668C18.9139 26.4917 20.1009 26 21.3385 26H58.6719Z" stroke="#0197FF" stroke-width="3" stroke-linecap="round" stroke-linejoin="round"/>
</svg>
